<?xml version="1.0" encoding="iso-8859-1"?>
<!-- Uploaded to: SVG Repo, www.svgrepo.com, Generator: SVG Repo Mixer Tools -->
<svg fill="#000000" height="800px" width="800px" version="1.1" id="Layer_1" xmlns="http://www.w3.org/2000/svg" xmlns:xlink="http://www.w3.org/1999/xlink" 
	 viewBox="0 0 512 512" xml:space="preserve">
<g>
	<g>
		<g>
			<path d="M256,153.6c-84.693,0-153.6,68.907-153.6,153.6S171.307,460.8,256,460.8s153.6-68.907,153.6-153.6
				S340.693,153.6,256,153.6z M256,443.733c-75.281,0-136.533-61.252-136.533-136.533c0-75.281,61.252-136.533,136.533-136.533
				S392.533,231.919,392.533,307.2C392.533,382.481,331.281,443.733,256,443.733z"/>
			<path d="M335.915,123.785l27.759-55.518h-51.2l-25.6,51.2h-19.081l25.6-51.2h-74.786l25.6,51.2h-19.081l-25.6-51.2h-51.2
				l27.759,55.518C99.959,157.542,51.2,228.531,51.2,307.2C51.2,420.122,143.078,512,256,512s204.8-91.878,204.8-204.8
				C460.8,228.531,412.041,157.542,335.915,123.785z M256,494.933c-103.518,0-187.733-84.215-187.733-187.733
				c0-74.044,47.479-140.86,121.105-170.667h49.562h34.133h49.562c73.626,29.807,121.105,96.623,121.105,170.667
				C443.733,410.718,359.518,494.933,256,494.933z"/>
			<path d="M362.967,51.2L331.368,3.797c-1.587-2.372-4.25-3.797-7.1-3.797h-47.667l-8.533,8.533L310.734,51.2H362.967z"/>
			<polygon points="286.6,51.2 255.999,20.599 225.399,51.2 			"/>
			<path d="M243.933,8.533L235.4,0h-47.667c-2.85,0-5.513,1.425-7.1,3.797L149.034,51.2h52.233L243.933,8.533z"/>
		</g>
	</g>
</g>
</svg>